<?xml version="1.0" encoding="UTF-8"?>
<svg id="_Слой_1" xmlns="http://www.w3.org/2000/svg" version="1.1" viewBox="0 0 100 100">
  <!-- Generator: Adobe Illustrator 29.8.5, SVG Export Plug-In . SVG Version: 2.1.1 Build 2)  -->
  <defs>
    <style>
      .st0 {
        fill: #fff;
      }

      .st1 {
        fill: #2400ff;
      }
    </style>
  </defs>
  <path class="st0" d="M0,10C0,4.48,4.48,0,10,0h80c5.52,0,10,4.48,10,10v80c0,5.52-4.48,10-10,10H10c-5.52,0-10-4.48-10-10V10Z"/>
  <path class="st1" d="M45,83h12.46v-8.51h4v8.51h16.54v4H22v-4h19v-8.51h4v8.51ZM77.82,9.91c1.61-1.61,4.21-1.61,5.82,0s1.61,4.21,0,5.82l-4.51,4.51c4.94.61,8.76,4.82,8.76,9.92v34.83c-.27,5.11-4.37,9.21-9.49,9.47H23c-5.52.01-10-4.47-10-9.99V30.16c0-5.35,4.2-9.72,9.49-9.99h45.08s10.25-10.26,10.25-10.26ZM33.57,47.12c-.24-.25-.41-.4-.81-.81-.69-.7-1.66-1.74-2.28-2.98-.65-1.3-1-3.03-.03-4.79.89-1.61,2.68-2.84,5.2-3.83,2.65-1.04,6.16-1.57,9.79-1.82,3.07-.21,6.35-.22,9.46-.13l8.65-8.65H23v.05c-3.31,0-6,2.69-6,6v34.32c0,3.31,2.69,6,6,6h54.89c3.31,0,6-2.69,6-6V30.16c0-3.31-2.69-6-6-6h-2.68l-9.41,9.41c.09,0,.18.02.27.03,1.21.14,2.22.27,2.93.39.35.06.67.12.92.18.11.03.28.07.45.13.07.03.44.16.66.26l.65.26c.73.27,2,.81,2.85,1.89.46.59.81,1.33.86,2.23.06.88-.17,1.74-.59,2.57-.81,1.6-2.46,3.34-5.11,5.34-2.66,2.02-5.55,4.28-8.47,6.48.84.17,1.67.34,2.48.52,2.63.56,5.07,1.12,6.86,1.53.89.21,1.62.38,2.13.5.25.06.45.11.59.14.07.02.12.03.15.04h.05s-.02.1-.47,1.94c-.45,1.86-.47,1.94-.47,1.94h-.04s-.08-.02-.15-.04c-.13-.03-.33-.08-.58-.14-.5-.12-1.22-.29-2.1-.5-1.77-.41-4.19-.96-6.79-1.52-2.01-.43-4.09-.85-6.05-1.21-1.18.83-2.36,1.63-3.51,2.38-2.73,1.76-5.43,3.27-7.96,4.23-2.49.95-5.05,1.47-7.37.92-3.61-.85-6.19-1.98-7.77-3.49-.82-.78-1.39-1.7-1.65-2.73-.25-1.03-.15-2.04.16-2.95.35-1.06,1.27-1.59,1.77-1.83.6-.29,1.31-.5,2.03-.66,1.45-.33,3.31-.55,5.25-.69,3.9-.29,8.43-.31,11.42-.24,1.62.04,4.03.37,6.68.82,3.83-2.77,7.72-5.85,11.4-8.65,2.5-1.9,3.57-3.19,3.96-3.96.09-.18.11-.23.13-.31.01-.06.03-.17.03-.19h0c-.12-.16-.48-.39-1.12-.63-.31-.12-.43-.19-.73-.29-.11-.04-.22-.11-.46-.17-.04-.01-.22-.05-.29-.09-.11-.02-.26-.05-.44-.08-.63-.1-1.56-.23-2.73-.36-1.01-.11-2.19-.23-3.48-.34l-1.77,1.77c-.69.69-1.57,1.09-2.48,1.18l-13.24,8.71,7.98-12.13c-2.33-.03-4.68.02-6.9.17-3.51.24-6.53.74-8.61,1.55-2.21.86-2.94,1.64-3.16,2.03-.13.24-.18.52.1,1.07.31.62.88,1.28,1.55,1.96.28.29.68.67.93.94.14.15.3.32.44.51.12.15.34.46.47.86l-3.79,1.26M49.1,55.5c-2.91-.07-7.31-.05-11.03.23-1.87.14-3.5.34-4.66.6-.44.1-.76.2-.97.28,0,.12,0,.22.02.31.04.17.16.44.53.79.79.76,2.53,1.68,5.92,2.48,1.18.28,2.83.07,5.03-.76,2.12-.81,4.52-2.13,7.1-3.78-.74-.08-1.4-.14-1.93-.15h0ZM71.72,36.22v-.17s-.01-.03-.01-.04c0,.07.01.13.01.21Z"/>
</svg>