<?xml version="1.0" encoding="UTF-8"?>
<svg id="_Слой_1" data-name="Слой_1" xmlns="http://www.w3.org/2000/svg" version="1.1" viewBox="0 0 100 100">
  <!-- Generator: Adobe Illustrator 29.8.5, SVG Export Plug-In . SVG Version: 2.1.1 Build 2)  -->
  <defs>
    <style>
      .st0 {
        fill: #fff;
      }

      .st1 {
        fill: #2400ff;
      }
    </style>
  </defs>
  <rect class="st0" x=".5" y=".5" width="99" height="99" rx="9.5" ry="9.5"/>
  <path class="st1" d="M59.36,16.32v1.81l1.33,8.85c.14.08.32.17.53.27.32.15.64.3.99.45.31.14.68.31.98.47.51.28,1.49.97,2.15,1.41.31.2.58.37.81.51l10.45-3.69.85,1.37c1.89,3.05,3.78,6.15,5.6,9.29l.77,1.35h0c.03.05.08.13.19.32.1.16.22.36.33.58.11.2.25.47.35.75.05.14.12.35.16.6.03.19.1.76-.23,1.37l-.18.33-.29.24c-1.18,1-2.48,1.93-3.69,2.8-1.23.89-2.37,1.72-3.37,2.59-.15.13-.23.22-.29.28,0,.08.02.18.05.34.04.24.08.55.11.92l.02.4c.02,1.02.02,2.06,0,3.08,0,.34-.05.67-.08.9-.04.27-.07.43-.08.61,0,.03,0,.05,0,.08,1.93,1.71,3.99,3.15,6.18,4.84l1.03.8.34.27.2.38.13.26.52,1-8.43,13.92-1.77.22-.46-.17c-1.38-.51-2.78-1.13-4.09-1.69-1.34-.57-2.61-1.1-3.84-1.5h0c-.14-.04-.27-.1-.36-.13,0,0,0,0,0,0-.24.13-.54.32-.88.54-.36.24-.72.49-1.07.73-.32.22-.69.46-.98.63-.3.17-.68.35-1,.5-.36.16-.71.32-1.04.49-.3.15-.54.28-.71.39l-.05.21c-.32,1.34-.53,2.79-.73,4.35-.2,1.52-.41,3.17-.75,4.74l-.35,1.61-16.66-.36-.78-.79-.46-.46-1.47-9.42c-.14-.08-.32-.18-.53-.28-.32-.15-.65-.3-.99-.45-.31-.14-.68-.31-.98-.47-.3-.17-.68-.42-1.01-.64-.37-.25-.73-.5-1.11-.75-.36-.24-.68-.43-.92-.57-.1.03-.2.07-.31.11-.11.04-.26.09-.4.13h0c-.46.14-2.28.87-4.23,1.62-.93.36-1.87.71-2.6.97-.36.13-.71.24-.99.32-.14.04-.3.08-.46.11-.08.01-.2.03-.33.04-.09,0-.39.03-.75-.08l-.76-.22-8.44-14.21,8.6-6.94v-6.37l-8.47-7.12,8.96-14.85,10.27,3.8c.23-.14.51-.31.82-.51.39-.25.76-.51,1.13-.76.33-.22.71-.48,1-.64l.35-.18c.35-.17.69-.31.97-.43.41-.17.68-.28.91-.41.4-.21.41-.31.44-.4.34-1.33.54-2.79.75-4.37.2-1.54.4-3.23.75-4.82l.35-1.61,18.05.35ZM44.58,20.03c-.14.91-.26,1.87-.39,2.87-.2,1.57-.43,3.25-.84,4.85-.41,1.6-1.5,2.45-2.44,2.95-.44.23-.9.42-1.25.56-.38.16-.67.28-.92.42h0c-.31.17-.94.63-1.86,1.24-.4.27-.85.55-1.25.77-.2.11-.43.23-.66.32-.18.07-.58.23-1.05.23h-.36s-.34-.12-.34-.12l-7.91-2.93-5.49,9.09,7.28,6.12v10.14l-7.39,5.96,5.48,9.22c.63-.23,1.4-.52,2.21-.83,1.77-.68,3.83-1.5,4.48-1.7.06-.02.14-.05.28-.09.12-.04.28-.1.44-.15.23-.07.79-.26,1.35-.25h0c.45,0,.83.14,1.03.22.24.09.47.21.67.32.41.22.85.5,1.25.76.92.6,1.53,1.05,1.86,1.23.12.07.34.17.68.32.31.14.71.31,1.08.49.37.18.8.4,1.18.64.28.18.75.51,1.09,1.01l.14.22.18.31,1.32,8.41,11.01.24c.14-.9.27-1.83.4-2.81.2-1.54.43-3.19.81-4.76,0-.03.01-.07.03-.14.01-.06.03-.16.05-.25.04-.18.12-.49.28-.82.34-.69.95-1.13,1.26-1.34.39-.27.84-.5,1.24-.7.4-.2.82-.39,1.14-.54.36-.17.58-.27.7-.34.34-.2.93-.62,1.83-1.22.39-.26.83-.53,1.23-.75.2-.11.43-.22.67-.31.21-.08.56-.2.98-.22h.21c.48.02.88.15,1.07.22.13.05.26.1.34.13.1.04.14.05.17.06,1.43.46,2.85,1.05,4.19,1.63.9.39,1.77.76,2.61,1.11l5.7-9.41c-2.16-1.64-4.61-3.39-6.69-5.31l-.26-.24-.16-.32c-.48-.94-.44-1.88-.38-2.46.03-.29.08-.59.1-.77.03-.22.04-.33.04-.4.02-.97.02-1.95,0-2.92v-.21c-.02-.2-.05-.39-.08-.6-.04-.24-.11-.7-.1-1.16.04-1.26.68-2.19,1.65-3.05,1.17-1.03,2.46-1.96,3.68-2.84.79-.57,1.55-1.12,2.26-1.66-.02-.03-.04-.06-.05-.09-1.74-3.07-3.58-6.11-5.45-9.13l-8.46,2.99h-.35c-.47,0-.87-.16-1.05-.23-.23-.09-.46-.21-.65-.32-.4-.22-.84-.5-1.24-.77-.91-.6-1.55-1.06-1.88-1.25-.12-.07-.34-.17-.68-.32-.31-.14-.71-.31-1.08-.49-.37-.18-.8-.4-1.18-.64-.32-.21-.88-.6-1.23-1.23l-.18-.32-1.27-8.43-11.06-.22ZM63.4,51.46c0-7.26-5.98-13.19-13.41-13.19s-13.41,5.93-13.41,13.19c0,7.26,5.98,13.19,13.41,13.19s13.41-5.93,13.41-13.19ZM67.4,51.46c0,9.52-7.82,17.19-17.41,17.19s-17.41-7.67-17.41-17.19c0-9.52,7.82-17.19,17.41-17.19s17.41,7.67,17.41,17.19Z"/>
</svg>